<svg xmlns="http://www.w3.org/2000/svg" viewBox="0 0 1024 1024" width="1024" height="1024">
  <defs>
    <linearGradient id="gCanvas" x1="0" y1="0" x2="1" y2="1">
      <stop offset="0" stop-color="#1ab6a6"/>
      <stop offset="0.55" stop-color="#1f9e86"/>
      <stop offset="1" stop-color="#2f9e5f"/>
    </linearGradient>
    <linearGradient id="gCanvasTop" x1="0" y1="0" x2="0" y2="1">
      <stop offset="0" stop-color="#ffffff" stop-opacity="0.22"/>
      <stop offset="0.45" stop-color="#ffffff" stop-opacity="0"/>
    </linearGradient>
    <clipPath id="frontClip"><rect x="324" y="318" width="376" height="376" rx="56"/></clipPath>
  </defs>
  <rect x="88" y="88" width="848" height="848" rx="196" fill="url(#gCanvas)"/>
  <rect x="88" y="88" width="848" height="848" rx="196" fill="url(#gCanvasTop)"/>
  <g transform="rotate(-10 512 512)"><rect x="300" y="296" width="376" height="376" rx="56" fill="#ffffff" opacity="0.32"/></g>
  <g transform="rotate(6 512 512)"><rect x="344" y="332" width="376" height="376" rx="56" fill="#ffffff" opacity="0.6"/></g>
  <rect x="324" y="318" width="376" height="376" rx="56" fill="#ffffff"/>
  <g clip-path="url(#frontClip)">
    <circle cx="412" cy="412" r="46" fill="#15a89a"/>
    <path d="M324 694 L470 512 L590 694 Z" fill="#2f9e5f"/>
    <path d="M512 694 L632 548 L700 632 L700 694 Z" fill="#1f9e86"/>
  </g>
  <circle cx="690" cy="690" r="92" fill="#ffffff"/>
  <circle cx="690" cy="690" r="76" fill="#2e7d32"/>
  <path d="M652 690 L680 720 L730 660" fill="none" stroke="#ffffff" stroke-width="22" stroke-linecap="round" stroke-linejoin="round"/>
</svg>
