<svg xmlns="http://www.w3.org/2000/svg" width="1024" height="1024" viewBox="0 0 1024 1024">
  <defs>
    <linearGradient id="canvas" x1="0" y1="0" x2="1" y2="1">
      <stop offset="0" stop-color="#1ab6a6"></stop>
      <stop offset="0.55" stop-color="#1f9e86"></stop>
      <stop offset="1" stop-color="#2f9e5f"></stop>
    </linearGradient>
    <linearGradient id="sheen" x1="0" y1="0" x2="0" y2="1">
      <stop offset="0" stop-color="#ffffff" stop-opacity="0.22"></stop>
      <stop offset="0.45" stop-color="#ffffff" stop-opacity="0"></stop>
    </linearGradient>
    <clipPath id="frontClip"><rect x="268" y="260" width="489" height="489" rx="73"></rect></clipPath>
  </defs>

  <rect x="88" y="88" width="848" height="848" rx="196" fill="url(#canvas)"></rect>
  <rect x="88" y="88" width="848" height="848" rx="196" fill="url(#sheen)"></rect>

  <g transform="rotate(-10 512 512)"><rect x="236" y="231" width="489" height="489" rx="73" fill="#ffffff" opacity="0.32"></rect></g>
  <g transform="rotate(6 512 512)"><rect x="294" y="278" width="489" height="489" rx="73" fill="#ffffff" opacity="0.6"></rect></g>

  <rect x="268" y="260" width="489" height="489" rx="73" fill="#ffffff"></rect>
  <g clip-path="url(#frontClip)">
    <circle cx="382" cy="382" r="60" fill="#15a89a"></circle>
    <path d="M268 749 L457 512 L613 749 Z" fill="#2f9e5f"></path>
    <path d="M512 749 L668 559 L756 668 L756 749 Z" fill="#1f9e86"></path>
  </g>

  <circle cx="743" cy="743" r="120" fill="#ffffff"></circle>
  <circle cx="743" cy="743" r="99" fill="#2e7d32"></circle>
  <path d="M694 743 L730 782 L795 704" fill="none" stroke="#ffffff" stroke-width="29" stroke-linecap="round" stroke-linejoin="round"></path>
</svg>
