<svg xmlns="http://www.w3.org/2000/svg" viewBox="88 88 848 848">
  <defs>
    <linearGradient id="gCanvas" x1="0" y1="0" x2="1" y2="1"><stop offset="0" stop-color="#1ab6a6"/><stop offset=".55" stop-color="#1f9e86"/><stop offset="1" stop-color="#2f9e5f"/></linearGradient>
    <clipPath id="pfc"><rect x="268" y="260" width="489" height="489" rx="73"/></clipPath>
  </defs>
  <rect x="88" y="88" width="848" height="848" rx="196" fill="url(#gCanvas)"/>
  <g transform="rotate(-10 512 512)"><rect x="236" y="231" width="489" height="489" rx="73" fill="#fff" opacity=".32"/></g>
  <g transform="rotate(6 512 512)"><rect x="294" y="278" width="489" height="489" rx="73" fill="#fff" opacity=".6"/></g>
  <rect x="268" y="260" width="489" height="489" rx="73" fill="#fff"/>
  <g clip-path="url(#pfc)"><circle cx="382" cy="382" r="60" fill="#15a89a"/>
    <path d="M268 749 L457 512 L613 749 Z" fill="#2f9e5f"/><path d="M512 749 L668 559 L756 668 L756 749 Z" fill="#1f9e86"/></g>
  <circle cx="743" cy="743" r="120" fill="#fff"/><circle cx="743" cy="743" r="99" fill="#2e7d32"/>
  <path d="M694 743 L730 782 L795 704" fill="none" stroke="#fff" stroke-width="29" stroke-linecap="round" stroke-linejoin="round"/>
</svg>
